<svg width="55" height="55" viewBox="0 0 55 55" fill="none" xmlns="http://www.w3.org/2000/svg">
<path d="M4.72656 14.3945V24.0625H6.23047H7.73437V33.3008V42.539L6.23047 45.5469C3.5664 50.789 1.24609 50.2734 27.5 50.2734C53.7539 50.2734 51.4336 50.789 48.7695 45.5469L47.2656 42.539V33.3008V24.0625H48.7695H50.2734V14.3945V4.72655H27.5H4.72656V14.3945ZM48.5547 14.3945V22.3437H27.5H6.44531V14.3945V6.44529H27.5H48.5547V14.3945ZM26.6406 26.8555C26.6406 29.3476 26.7266 29.6484 27.5 29.6484C28.2734 29.6484 28.3594 29.3476 28.3594 26.8555V24.0625H32.1406H35.9219L41.6797 35.9219C44.8594 42.4531 47.5664 47.9531 47.6094 48.168C47.6953 48.3828 43.3984 48.5547 38.0703 48.5547H28.4023L28.2734 45.2031C28.1875 42.625 28.0156 41.8945 27.5 41.8945C26.9844 41.8945 26.8125 42.625 26.7266 45.2031L26.5977 48.5547H16.9297C11.6016 48.5547 7.30468 48.3828 7.39062 48.168C7.47656 47.9961 10.1406 42.4531 13.3203 35.9219L19.1211 24.0625H22.8594H26.6406V26.8555Z" fill="#333333"/>
<path d="M7.90626 8.72266C7.82032 9.02344 7.77735 11.7734 7.82032 14.8672L7.94923 20.4102H27.5H47.0508V14.3945V8.37891L27.5859 8.25C11.8594 8.16406 8.07814 8.25 7.90626 8.72266ZM45.1172 14.1797V18.4766H27.5H9.88282V14.1797V9.88281H27.5H45.1172V14.1797Z" fill="#333333"/>
<path d="M12.9336 11.9883C12.5898 12.2031 12.4609 12.6758 12.5898 13.0625C12.8476 13.6641 13.9218 13.75 20.625 13.75H28.4023L28.2734 12.7617C28.1445 11.8164 28.0586 11.8164 20.8398 11.7305C16.8437 11.6445 13.2773 11.7734 12.9336 11.9883Z" fill="#333333"/>
</svg>
